<svg width="36" height="36" viewBox="0 0 36 36" fill="none" xmlns="http://www.w3.org/2000/svg">
<path d="M18 36C27.9411 36 36 27.9411 36 18C36 8.05888 27.9411 0 18 0C8.05888 0 0 8.05888 0 18C0 27.9411 8.05888 36 18 36Z" fill="#382B73"/>
<path d="M18 33.375C26.4914 33.375 33.375 26.4914 33.375 18C33.375 9.50865 26.4914 2.62503 18 2.62503C9.50862 2.62503 2.625 9.50865 2.625 18C2.625 26.4914 9.50862 33.375 18 33.375Z" fill="#8975BA"/>
<path d="M28.706 20.3208H27.5679V17.9881C27.5679 17.4978 27.1704 17.1004 26.6802 17.1004H26.0633H25.079H24.9935C24.9887 17.1004 24.9842 17.1018 24.9792 17.1018C24.3129 15.8208 23.3064 14.7451 22.0769 13.9981C21.9954 13.9486 21.9128 13.9009 21.8294 13.8543C22.254 13.1674 22.4997 12.3582 22.4997 11.4913C22.4997 9.00613 20.4849 6.99133 17.9997 6.99133C15.5144 6.99133 13.4997 9.00598 13.4997 11.4913C13.4997 12.3582 13.7454 13.1674 14.1701 13.8543C14.0867 13.9009 14.004 13.9486 13.9226 13.9981C12.5526 14.8303 11.4588 16.0704 10.8054 17.5485L10.5986 17.3154C10.4394 17.1361 10.2048 17.0689 9.98897 17.1138C9.90272 17.1316 9.81932 17.1675 9.74522 17.2213C9.70802 17.2482 9.67322 17.2795 9.64142 17.3154L6.81512 20.4991C6.70067 20.6281 6.65057 20.7805 6.65252 20.929C6.65252 20.9316 6.65312 20.934 6.65312 20.9364C6.65447 20.9866 6.66212 21.0361 6.67487 21.0843C6.67937 21.1012 6.68477 21.1177 6.69062 21.1344C6.70127 21.1648 6.71432 21.1942 6.72932 21.2227C6.76337 21.2874 6.80717 21.3469 6.86132 21.397C6.86237 21.3979 6.86312 21.3991 6.86417 21.4C6.97382 21.5002 7.12112 21.5638 7.29362 21.5638H8.43152V23.8965V23.8966V23.9818C8.43152 24.4249 8.79062 24.784 9.23372 24.784H9.31922H10.3035H10.6706C11.8125 27.7174 14.6622 29.7973 17.9996 29.7973C21.4158 29.7973 24.3221 27.6184 25.4075 24.5749C25.502 24.6784 25.6217 24.7441 25.7484 24.7705C25.8347 24.7885 25.9241 24.7885 26.0103 24.7705C26.1398 24.7437 26.2625 24.6765 26.3579 24.5689L29.1842 21.3852C29.5511 20.9728 29.258 20.3208 28.706 20.3208Z" fill="#382B73"/>
<path d="M25.2662 23.8933C26.9283 19.8806 25.0229 15.2804 21.0103 13.6183C16.9977 11.9562 12.3974 13.8616 10.7353 17.8742C9.07317 21.8868 10.9786 26.4871 14.9912 28.1492C19.0038 29.8113 23.6041 27.9059 25.2662 23.8933Z" fill="#E7AD27"/>
<path d="M25.2663 22.6834C26.9284 18.6708 25.0229 14.0706 21.0103 12.4085C16.9977 10.7464 12.3975 12.6518 10.7353 16.6644C9.07324 20.677 10.9787 25.2773 14.9913 26.9394C19.0039 28.6015 23.6041 26.696 25.2663 22.6834Z" fill="#FEDE3A"/>
<path d="M23.8225 20.6189C24.3443 17.4036 22.1608 14.374 18.9454 13.8521C15.73 13.3303 12.7005 15.5138 12.1786 18.7292C11.6568 21.9446 13.8403 24.9741 17.0557 25.496C20.271 26.0178 23.3006 23.8343 23.8225 20.6189Z" fill="#F7CB15"/>
<path d="M18 14.2129C21.1836 14.2129 23.7711 16.7371 23.8869 19.8924C23.8896 19.8193 23.8978 19.7476 23.8978 19.674C23.8978 16.4166 21.2572 13.776 17.9998 13.776C14.7424 13.776 12.1018 16.4166 12.1018 19.674C12.1018 19.7478 12.1102 19.8193 12.1129 19.8924C12.2289 16.7371 14.8164 14.2129 18 14.2129Z" fill="#E7AD27"/>
<path d="M20.4885 21.4239C20.4885 21.0432 20.4126 20.7069 20.2627 20.4242C20.1132 20.1422 19.8883 19.8969 19.5942 19.6953C19.3171 19.5056 18.8995 19.3172 18.3175 19.1196C17.6998 18.9098 17.4154 18.7224 17.2855 18.6018C17.1903 18.5138 17.1262 18.4019 17.0911 18.2639C17.0784 18.2138 17.0785 18.1596 17.0911 18.1097C17.1303 17.955 17.2053 17.8266 17.3175 17.7212C17.4979 17.5518 17.7564 17.4695 18.1074 17.4695C18.4419 17.4695 18.694 17.5712 18.8782 17.7804C19.0743 18.0029 19.1697 18.3066 19.1697 18.7091C19.1697 18.9057 19.3291 19.0652 19.5258 19.0652H20.0811C20.2777 19.0652 20.4372 18.9057 20.4372 18.7091C20.4372 18.693 20.4343 18.6791 20.4342 18.6632H20.4372V18.3071C20.4372 17.6055 20.2579 17.0349 19.9042 16.611C19.6581 16.3163 19.3435 16.1069 18.9651 15.9851C18.8172 15.9375 18.7155 15.8021 18.7155 15.6467V15.3296V15.2837C18.7155 15.087 18.556 14.9276 18.3594 14.9276H17.8834C17.6868 14.9276 17.5273 15.087 17.5273 15.2837V15.3296V15.6375C17.5273 15.7949 17.4231 15.9324 17.2722 15.9774C16.9129 16.0845 16.6077 16.2644 16.3606 16.515C15.9831 16.8981 15.7915 17.3976 15.7915 17.9991C15.7915 18.0705 15.8025 18.1359 15.8079 18.2043C15.8029 18.2702 15.7915 18.3326 15.7915 18.4011C15.7915 18.9741 15.9666 19.4522 16.3119 19.8222C16.6408 20.1746 17.175 20.4635 17.9349 20.702C18.5743 20.9234 18.8601 21.1184 18.9873 21.2429C19.0653 21.3192 19.1221 21.4073 19.1596 21.5075C19.1904 21.5898 19.1905 21.6816 19.159 21.7637C19.1119 21.8862 19.0347 21.992 18.9243 22.0856C18.7104 22.2672 18.4323 22.3556 18.0745 22.3556C17.6601 22.3556 17.3536 22.2534 17.1376 22.0434C16.9246 21.8361 16.821 21.5465 16.821 21.158C16.821 20.9613 16.6615 20.8019 16.4649 20.8019H15.9049C15.7083 20.8019 15.5488 20.9613 15.5488 21.158C15.5488 21.174 15.5521 21.188 15.5523 21.2039H15.5488V21.56C15.5488 22.2657 15.7552 22.8365 16.1623 23.2566C16.4451 23.5484 16.8073 23.7509 17.244 23.862C17.4018 23.9022 17.5131 24.0431 17.5131 24.2058V24.4349V24.4808C17.5131 24.6774 17.6725 24.8369 17.8692 24.8369H18.3405C18.5371 24.8369 18.6966 24.6774 18.6966 24.4808V24.4349V24.189C18.6966 24.0297 18.8032 23.8907 18.9565 23.8478C19.3315 23.7425 19.6485 23.5641 19.9033 23.3142C20.2914 22.9337 20.4883 22.4328 20.4883 21.8259C20.4883 21.74 20.4832 21.657 20.4754 21.5756C20.4787 21.5243 20.4885 21.4767 20.4885 21.4239Z" fill="#E7AD27"/>
<path d="M20.2629 20.4241C20.1133 20.1421 19.8885 19.8969 19.5943 19.6953C19.3173 19.5054 18.8995 19.317 18.3177 19.1196C17.7 18.9097 17.4156 18.7224 17.2857 18.6018C17.1333 18.4608 17.0592 18.2596 17.0592 17.9871C17.0592 17.701 17.1438 17.4825 17.3176 17.3191C17.4981 17.1498 17.7565 17.0674 18.1075 17.0674C18.442 17.0674 18.6942 17.1691 18.8784 17.3784C19.0744 17.601 19.1698 17.9047 19.1698 18.307C19.1698 18.5037 19.3293 18.6632 19.5259 18.6632H20.0812C20.2779 18.6632 20.4373 18.5037 20.4373 18.307C20.4373 17.6055 20.2581 17.0349 19.9044 16.611C19.6582 16.3162 19.3437 16.1068 18.9651 15.9849C18.8172 15.9373 18.7155 15.8019 18.7155 15.6465V15.2835C18.7155 15.0868 18.556 14.9274 18.3594 14.9274H17.8836C17.6869 14.9274 17.5275 15.0868 17.5275 15.2835V15.6373C17.5275 15.7947 17.4232 15.9322 17.2723 15.9772C16.9131 16.0843 16.6078 16.2642 16.3608 16.5148C15.9832 16.8979 15.7917 17.3973 15.7917 17.9989C15.7917 18.5719 15.9667 19.05 16.3119 19.42C16.6408 19.7724 17.175 20.0611 17.9349 20.2998C18.5743 20.5212 18.8601 20.7162 18.9873 20.8407C19.1413 20.9915 19.2162 21.1852 19.2162 21.433C19.2162 21.709 19.1235 21.9163 18.9243 22.0854C18.7102 22.267 18.4323 22.3554 18.0745 22.3554C17.6601 22.3554 17.3536 22.2533 17.1376 22.0433C16.9246 21.8359 16.821 21.5463 16.821 21.1576C16.821 20.961 16.6615 20.8015 16.4649 20.8015H15.9049C15.7083 20.8015 15.5488 20.961 15.5488 21.1576C15.5488 21.8634 15.7552 22.4341 16.1623 22.8543C16.4451 23.146 16.8075 23.3485 17.244 23.4597C17.4016 23.4999 17.5131 23.6408 17.5131 23.8035V24.0784C17.5131 24.2751 17.6725 24.4346 17.8692 24.4346H18.3403C18.537 24.4346 18.6964 24.2751 18.6964 24.0784V23.7867C18.6964 23.6274 18.8031 23.4885 18.9564 23.4454C19.3314 23.3401 19.6483 23.1618 19.9032 22.912C20.2912 22.5315 20.488 22.0306 20.488 21.4237C20.4885 21.0432 20.4126 20.7069 20.2629 20.4241Z" fill="#D1D3D4"/>
<path d="M20.2632 20.0222C20.1137 19.7402 19.8888 19.4949 19.5947 19.2933C19.3176 19.1034 18.8999 18.9152 18.318 18.7176C17.7003 18.5078 17.4159 18.3204 17.286 18.1998C17.1336 18.0588 17.0595 17.8578 17.0595 17.5851C17.0595 17.2989 17.1441 17.0805 17.318 16.9172C17.4984 16.7478 17.7569 16.6655 18.1079 16.6655C18.4424 16.6655 18.6945 16.7672 18.8787 16.9764C19.0748 17.199 19.1702 17.5026 19.1702 17.9051C19.1702 18.1017 19.3296 18.2612 19.5263 18.2612H20.0816C20.2782 18.2612 20.4377 18.1017 20.4377 17.9051C20.4377 17.2035 20.2584 16.6329 19.9047 16.209C19.6586 15.9143 19.344 15.7049 18.9656 15.5829C18.8177 15.5354 18.716 15.3999 18.716 15.2445V14.8815C18.716 14.6849 18.5565 14.5254 18.3599 14.5254H17.8841C17.6874 14.5254 17.528 14.6849 17.528 14.8815V15.2354C17.528 15.3927 17.4237 15.5303 17.2728 15.5753C16.9136 15.6824 16.6083 15.8622 16.3613 16.1129C15.9837 16.496 15.7922 16.9953 15.7922 17.597C15.7922 18.17 15.9672 18.648 16.3124 19.0181C16.6413 19.3706 17.1755 19.6592 17.9354 19.8978C18.5748 20.1192 18.8606 20.3142 18.9878 20.4387C19.1418 20.5895 19.2167 20.7833 19.2167 21.0311C19.2167 21.3071 19.124 21.5144 18.9248 21.6834C18.7107 21.8651 18.4328 21.9534 18.075 21.9534C17.6606 21.9534 17.3541 21.8513 17.1381 21.6413C16.9251 21.434 16.8215 21.1443 16.8215 20.7558C16.8215 20.5592 16.662 20.3997 16.4654 20.3997H15.9054C15.7088 20.3997 15.5493 20.5592 15.5493 20.7558C15.5493 21.4616 15.7557 22.0323 16.1628 22.4525C16.4456 22.7442 16.808 22.9467 17.2445 23.0579C17.4021 23.0981 17.5136 23.2389 17.5136 23.4017V23.6766C17.5136 23.8733 17.673 24.0327 17.8697 24.0327H18.3408C18.5375 24.0327 18.6969 23.8733 18.6969 23.6766V23.3849C18.6969 23.2256 18.8036 23.0867 18.9569 23.0436C19.3319 22.9383 19.6488 22.76 19.9037 22.5101C20.2917 22.1295 20.4885 21.6287 20.4885 21.0218C20.4888 20.6411 20.4129 20.3048 20.2632 20.0222Z" fill="white"/>
<path d="M28.706 19.2708H27.5679V16.9381C27.5679 16.4478 27.1704 16.0504 26.6802 16.0504H25.0791C24.5889 16.0504 24.1914 16.4479 24.1914 16.9381V19.2708H23.0534C22.5014 19.2708 22.2084 19.9228 22.5749 20.3355L25.4012 23.5192C25.6557 23.806 26.1038 23.806 26.3583 23.5192L29.1846 20.3355C29.5511 19.9228 29.258 19.2708 28.706 19.2708Z" fill="#815AEF"/>
<path d="M28.7925 19.2773L26.3583 22.0194C26.1037 22.3062 25.6557 22.3062 25.4011 22.0194L22.9669 19.2773C22.4722 19.3413 22.2282 19.9451 22.5748 20.3357L25.4011 23.5194C25.6557 23.8062 26.1037 23.8062 26.3583 23.5194L29.1846 20.3357C29.5312 19.9451 29.2872 19.3413 28.7925 19.2773Z" fill="#6245B2"/>
<path d="M13.4251 19.4493L10.5988 16.2655C10.3443 15.9787 9.89623 15.9787 9.64168 16.2655L6.81538 19.4493C6.44893 19.8621 6.74203 20.514 7.29388 20.514H8.43178V22.8466C8.43178 23.337 8.82928 23.7343 9.31948 23.7343H10.9206C11.4109 23.7343 11.8083 23.3368 11.8083 22.8466V20.514H12.9463C13.4985 20.514 13.7916 19.8619 13.4251 19.4493Z" fill="#1CAEE4"/>
<path d="M8.43193 19.014H7.29403C7.26433 19.014 7.23568 19.0113 7.20748 19.0076L6.81538 19.4492C6.44893 19.862 6.74203 20.5139 7.29388 20.5139H8.43178L8.43193 19.014Z" fill="#009ADD"/>
<path d="M13.0329 19.0076C13.0047 19.0112 12.9762 19.014 12.9464 19.014H11.8083V20.514H12.9464C13.4984 20.514 13.7913 19.8621 13.4249 19.4493L13.0329 19.0076Z" fill="#009ADD"/>
<path d="M10.9208 22.2343H9.31958C8.82923 22.2343 8.43188 21.8368 8.43188 21.3466V22.8466C8.43188 23.337 8.82938 23.7343 9.31958 23.7343H10.9207C11.411 23.7343 11.8084 23.3368 11.8084 22.8466V21.3466C11.8085 21.837 11.411 22.2343 10.9208 22.2343Z" fill="#009ADD"/>
<path d="M17.9999 11.8099C16.5073 11.8099 15.1117 12.2259 13.9228 12.948C14.5603 14.3088 15.8588 15.298 17.405 15.5022C17.4809 15.4365 17.5274 15.3402 17.5274 15.235V14.8812C17.5274 14.6845 17.6869 14.5251 17.8835 14.5251H18.3593C18.556 14.5251 18.7154 14.6845 18.7154 14.8812V15.2442C18.7154 15.3294 18.746 15.4086 18.7981 15.4705C20.2544 15.2098 21.4676 14.2486 22.0769 12.9478C20.8882 12.2259 19.4926 11.8099 17.9999 11.8099Z" fill="#E7AD27"/>
<path d="M18.3594 14.5254H17.8836C17.6869 14.5254 17.5275 14.6849 17.5275 14.8815V15.2354C17.5275 15.3405 17.481 15.4367 17.4051 15.5025C17.5998 15.5283 17.7984 15.5415 18 15.5415C18.2724 15.5415 18.5391 15.5172 18.7981 15.4709C18.7461 15.4089 18.7155 15.3297 18.7155 15.2445V14.8815C18.7155 14.6847 18.556 14.5254 18.3594 14.5254Z" fill="#D1D3D4"/>
<path d="M17.9999 14.9415C20.4852 14.9415 22.4999 12.9268 22.4999 10.4415C22.4999 7.95625 20.4852 5.94153 17.9999 5.94153C15.5147 5.94153 13.4999 7.95625 13.4999 10.4415C13.4999 12.9268 15.5147 14.9415 17.9999 14.9415Z" fill="#B65AEF"/>
<path d="M20.11 12.5892C20.1094 12.5769 20.1076 12.5646 20.1044 12.5523C20.1002 12.536 20.0938 12.5196 20.0846 12.5039L19.9415 12.255C19.9357 12.2448 19.93 12.2346 19.9244 12.2244C19.9231 12.2219 19.9216 12.2193 19.9202 12.2168C19.9148 12.2067 19.9094 12.1967 19.9042 12.1865C19.9033 12.1847 19.9022 12.1827 19.9013 12.1809C19.897 12.1724 19.8926 12.1638 19.8884 12.1553C19.8869 12.1521 19.8853 12.1488 19.8838 12.1457C19.879 12.1359 19.8743 12.1262 19.8698 12.1164C19.8685 12.1136 19.8671 12.1107 19.8658 12.1077C19.8622 12.0999 19.8587 12.0923 19.8553 12.0845C19.8538 12.081 19.8523 12.0777 19.8508 12.0743C19.7086 11.7486 19.6636 11.3871 19.7234 11.0339L19.8014 10.5744C19.9028 9.97638 19.7099 9.35867 19.265 8.94617C19.0645 8.76032 18.8222 8.61887 18.5537 8.53757C18.599 8.45297 18.6248 8.35637 18.6248 8.25362C18.6248 7.92122 18.3554 7.65182 18.023 7.65182C17.6906 7.65182 17.4212 7.92122 17.4212 8.25362C17.4212 8.35622 17.447 8.45297 17.4923 8.53757C17.4077 8.56322 17.3258 8.59472 17.2469 8.63177C16.5046 8.98067 16.1066 9.80237 16.2554 10.6091L16.3135 10.9239C16.3856 11.3154 16.3285 11.7189 16.1516 12.074C16.1471 12.0831 16.1425 12.0921 16.1378 12.1011C16.1362 12.1043 16.1345 12.1076 16.1329 12.1107C16.1266 12.1229 16.12 12.1349 16.1134 12.1469L15.9139 12.5063C15.9095 12.5142 15.9058 12.5222 15.9026 12.5303C15.8995 12.5384 15.8969 12.5465 15.895 12.5547C15.892 12.567 15.8903 12.5793 15.8899 12.5915C15.8894 12.6036 15.8902 12.6158 15.8921 12.6276C15.8933 12.6356 15.8951 12.6434 15.8974 12.651C15.8996 12.6587 15.9023 12.6662 15.9055 12.6734C15.9071 12.677 15.9088 12.6806 15.9106 12.6842C15.9196 12.7019 15.9313 12.7181 15.9452 12.7322C15.9481 12.735 15.9509 12.7377 15.9539 12.7404C15.9748 12.759 16 12.7731 16.0282 12.7811C16.0444 12.7856 16.0616 12.788 16.0796 12.788H17.3594C17.357 12.7955 17.3548 12.8031 17.3527 12.8108C17.3525 12.8115 17.3524 12.8121 17.3521 12.8129C17.3504 12.8187 17.3489 12.8246 17.3474 12.8304C17.3471 12.8318 17.3468 12.8331 17.3464 12.8345C17.345 12.8405 17.3435 12.8465 17.3423 12.8525C17.3422 12.8534 17.3419 12.8543 17.3417 12.8552C17.3404 12.8619 17.339 12.8688 17.3378 12.8757C17.3377 12.8771 17.3374 12.8783 17.3372 12.8796C17.3363 12.8852 17.3354 12.8907 17.3347 12.8963C17.3344 12.8982 17.3341 12.9 17.3339 12.902C17.333 12.9084 17.3323 12.915 17.3315 12.9215C17.3315 12.9218 17.3314 12.9221 17.3314 12.9224C17.3306 12.9294 17.33 12.9363 17.3296 12.9434C17.3294 12.9453 17.3294 12.9471 17.3293 12.9491C17.329 12.9543 17.3287 12.9594 17.3285 12.9647C17.3284 12.9668 17.3284 12.9689 17.3282 12.971C17.3281 12.978 17.3278 12.9849 17.3278 12.992C17.3278 13.3632 17.6288 13.6643 18.0001 13.6643C18.029 13.6643 18.0577 13.6625 18.0857 13.6589C18.1081 13.656 18.1303 13.6521 18.1519 13.647C18.1627 13.6445 18.1735 13.6418 18.1841 13.6388C18.2426 13.6221 18.2978 13.5978 18.3487 13.5669C18.3533 13.5641 18.3578 13.5612 18.3623 13.5584C18.4214 13.5204 18.4742 13.4736 18.5188 13.4196C18.5222 13.4154 18.5255 13.4112 18.529 13.407C18.5356 13.3986 18.542 13.3899 18.5483 13.3811C18.5795 13.3371 18.6056 13.2893 18.6257 13.2384C18.6298 13.2282 18.6335 13.2179 18.637 13.2075C18.6388 13.2023 18.6404 13.197 18.6421 13.1918C18.6454 13.1813 18.6484 13.1706 18.6511 13.1598C18.6649 13.1061 18.6722 13.0499 18.6722 12.9918C18.6722 12.9848 18.6721 12.9777 18.6718 12.9708C18.6718 12.9687 18.6716 12.9666 18.6715 12.9645C18.6713 12.9593 18.671 12.954 18.6707 12.9489C18.6706 12.947 18.6704 12.9452 18.6704 12.9432C18.67 12.9362 18.6694 12.9291 18.6686 12.9222C18.6686 12.9219 18.6685 12.9216 18.6685 12.9213C18.6677 12.9147 18.667 12.9083 18.6661 12.9018C18.6658 12.8999 18.6656 12.8981 18.6653 12.8961C18.6646 12.8906 18.6637 12.885 18.6628 12.8795C18.6626 12.8781 18.6623 12.8769 18.6622 12.8756C18.661 12.8687 18.6596 12.8619 18.6583 12.855C18.6581 12.8541 18.6578 12.8532 18.6577 12.8523C18.6565 12.8463 18.655 12.8403 18.6536 12.8343C18.6533 12.833 18.653 12.8316 18.6526 12.8303C18.6511 12.8244 18.6496 12.8186 18.6479 12.8127C18.6478 12.812 18.6476 12.8114 18.6473 12.8106C18.6452 12.803 18.643 12.7953 18.6406 12.7878H19.9204C19.9387 12.7878 19.9559 12.7854 19.9723 12.7808C19.9805 12.7785 19.9883 12.7757 19.996 12.7724C19.9997 12.7707 20.0035 12.7689 20.0072 12.7671C20.0212 12.7599 20.0341 12.7509 20.0456 12.7407C20.0491 12.7377 20.0525 12.7344 20.0557 12.7311C20.0641 12.7226 20.0716 12.7131 20.0782 12.7032C20.0804 12.6999 20.0824 12.6965 20.0845 12.693C20.0893 12.6848 20.0933 12.6762 20.0968 12.6672C20.0992 12.6612 20.1013 12.6552 20.1031 12.6489C20.1064 12.6374 20.1085 12.6255 20.1095 12.6134C20.1103 12.6054 20.1104 12.5973 20.11 12.5892ZM18.023 8.04812C18.1366 8.04812 18.2285 8.14022 18.2285 8.25362C18.2285 8.36717 18.1364 8.45912 18.023 8.45912C17.9095 8.45912 17.8175 8.36702 17.8175 8.25362C17.8174 8.14007 17.9095 8.04812 18.023 8.04812Z" fill="#E43D91"/>
<path d="M20.0848 12.0537L19.9417 11.8049C19.7294 11.4356 19.6522 11.0039 19.7234 10.5839L19.8014 10.1244C19.9028 9.52638 19.7099 8.90867 19.265 8.49617C18.9391 8.19392 18.5026 8.00912 18.023 8.00912C17.7455 8.00912 17.4824 8.07092 17.2469 8.18162C16.5046 8.53052 16.1066 9.35222 16.2554 10.1589L16.3135 10.4738C16.3907 10.8923 16.3199 11.3247 16.1134 11.6967L15.9139 12.0561C15.8437 12.1824 15.9352 12.3377 16.0796 12.3377H19.9205C20.0662 12.3378 20.1574 12.18 20.0848 12.0537Z" fill="#F7CB15"/>
<path d="M19.3392 12.0537L19.2473 11.8049C19.1109 11.4356 19.0613 11.0039 19.107 10.5839L19.1571 10.1244C19.2222 9.52638 19.0983 8.90867 18.8126 8.49617C18.6032 8.19392 18.3228 8.00912 18.0147 8.00912C17.8365 8.00912 17.6675 8.07092 17.5161 8.18162C17.0393 8.53052 16.7837 9.35222 16.8792 10.1589L16.9166 10.4738C16.9661 10.8923 16.9208 11.3247 16.788 11.6967L16.6599 12.0561C16.6149 12.1824 16.6736 12.3377 16.7664 12.3377H19.2336C19.3272 12.3378 19.3859 12.18 19.3392 12.0537Z" fill="#FFF335"/>
<path d="M18.0001 13.2143C18.3714 13.2143 18.6724 12.9133 18.6724 12.542C18.6724 12.1707 18.3714 11.8697 18.0001 11.8697C17.6288 11.8697 17.3278 12.1707 17.3278 12.542C17.3278 12.9133 17.6288 13.2143 18.0001 13.2143Z" fill="#F7CB15"/>
<path d="M18.0001 12.8513C17.6917 12.8513 17.4317 12.6437 17.3525 12.3605C17.3363 12.4182 17.3278 12.479 17.3278 12.542C17.3278 12.9132 17.6288 13.2143 18.0001 13.2143C18.3713 13.2143 18.6724 12.9132 18.6724 12.542C18.6724 12.4791 18.6637 12.4182 18.6476 12.3605C18.5684 12.6437 18.3085 12.8513 18.0001 12.8513Z" fill="#E7AD27"/>
<path d="M18.0231 7.20181C17.6907 7.20181 17.4213 7.47121 17.4213 7.80361C17.4213 8.13601 17.6907 8.40541 18.0231 8.40541C18.3555 8.40541 18.6249 8.13601 18.6249 7.80361C18.6249 7.47121 18.3553 7.20181 18.0231 7.20181ZM18.0231 8.00926C17.9095 8.00926 17.8176 7.91716 17.8176 7.80376C17.8176 7.69021 17.9095 7.59826 18.0231 7.59826C18.1366 7.59826 18.2286 7.69036 18.2286 7.80376C18.2286 7.91716 18.1365 8.00926 18.0231 8.00926Z" fill="#FFF335"/>
<path d="M18.0232 7.38794C17.7937 7.38794 17.6075 7.57409 17.6075 7.80359C17.6075 8.03309 17.7937 8.21924 18.0232 8.21924C18.2527 8.21924 18.4388 8.03309 18.4388 7.80359C18.4388 7.57409 18.2527 7.38794 18.0232 7.38794ZM18.0232 8.00924C17.9096 8.00924 17.8177 7.91714 17.8177 7.80374C17.8177 7.69019 17.9096 7.59824 18.0232 7.59824C18.1367 7.59824 18.2287 7.69034 18.2287 7.80374C18.2287 7.91714 18.1366 8.00924 18.0232 8.00924Z" fill="#F7CB15"/>
<path d="M16.1133 11.6967L15.9138 12.0561C15.8436 12.1824 15.9351 12.3377 16.0796 12.3377H19.9205C20.0663 12.3377 20.1575 12.18 20.0849 12.0536L19.9418 11.8047C19.9077 11.7455 19.8771 11.6846 19.85 11.6223H16.1523C16.1399 11.6475 16.127 11.6723 16.1133 11.6967Z" fill="#F7CB15"/>
<path d="M19.3391 12.0537L19.2472 11.8049C19.2253 11.7456 19.2056 11.6847 19.1882 11.6225H16.8131C16.8052 11.6475 16.7968 11.6723 16.7881 11.6967L16.66 12.0561C16.615 12.1824 16.6736 12.3377 16.7665 12.3377H19.2337C19.3271 12.3378 19.3858 12.18 19.3391 12.0537Z" fill="#FEDE3A"/>
</svg>
